<svg width="1400" height="1000" viewBox="0 0 1400 1000" fill="none" xmlns="http://www.w3.org/2000/svg">
  <rect width="1400" height="1000" fill="#1e1810"/>
  <defs>
    <linearGradient id="heritageG" x1="0" y1="0" x2="0" y2="1000" gradientUnits="userSpaceOnUse">
      <stop offset="0%" stop-color="#2a2018"/>
      <stop offset="50%" stop-color="#1e1810"/>
      <stop offset="100%" stop-color="#14100a"/>
    </linearGradient>
    <radialGradient id="warmLight" cx="500" cy="400" r="350" gradientUnits="userSpaceOnUse">
      <stop offset="0%" stop-color="#c5a46d" stop-opacity="0.18"/>
      <stop offset="100%" stop-color="transparent"/>
    </radialGradient>
  </defs>
  <rect width="1400" height="1000" fill="url(#heritageG)"/>
  <rect width="1400" height="1000" fill="url(#warmLight)"/>
  <!-- Arch windows -->
  <path d="M200 150 L200 550 Q200 650 300 650 Q400 650 400 550 L400 150 Z" fill="#2a2010" stroke="#c5a46d" stroke-width="1" stroke-opacity="0.4"/>
  <path d="M220 170 L220 540 Q220 630 300 630 Q380 630 380 540 L380 170 Z" fill="#1a3020" opacity="0.5"/>
  <!-- Second arch -->
  <path d="M500 200 L500 550 Q500 630 580 630 Q660 630 660 550 L660 200 Z" fill="#2a2010" stroke="#c5a46d" stroke-width="1" stroke-opacity="0.35"/>
  <!-- Heritage ornament -->
  <circle cx="300" cy="150" r="60" fill="none" stroke="#c5a46d" stroke-width="0.75" stroke-opacity="0.4"/>
  <circle cx="300" cy="150" r="40" fill="none" stroke="#c5a46d" stroke-width="0.5" stroke-opacity="0.3"/>
  <!-- Floor -->
  <rect x="0" y="700" width="1400" height="300" fill="#12100a"/>
  <!-- Tile pattern -->
  <line x1="0" y1="750" x2="1400" y2="750" stroke="#c5a46d" stroke-width="0.3" stroke-opacity="0.2"/>
  <line x1="0" y1="800" x2="1400" y2="800" stroke="#c5a46d" stroke-width="0.3" stroke-opacity="0.15"/>
  <!-- Label -->
  <text x="100" y="950" font-family="Georgia, serif" font-size="14" fill="#c5a46d" opacity="0.6" letter-spacing="4">HERITAGE HOME RENEWAL · BEGUMPET</text>
</svg>
