<svg width="1400" height="1000" viewBox="0 0 1400 1000" fill="none" xmlns="http://www.w3.org/2000/svg">
  <rect width="1400" height="1000" fill="#2a2015"/>
  <rect x="0" y="0" width="1400" height="1000" fill="url(#grad1)"/>
  <defs>
    <linearGradient id="grad1" x1="0" y1="0" x2="1400" y2="1000" gradientUnits="userSpaceOnUse">
      <stop offset="0%" stop-color="#3d2e1a"/>
      <stop offset="50%" stop-color="#5a4020"/>
      <stop offset="100%" stop-color="#2a1e0e"/>
    </linearGradient>
  </defs>
  <!-- Floor -->
  <rect x="0" y="680" width="1400" height="320" fill="#1a120a"/>
  <!-- Wall panels -->
  <rect x="80" y="120" width="4" height="560" fill="#c5a46d" opacity="0.4"/>
  <rect x="280" y="120" width="4" height="560" fill="#c5a46d" opacity="0.25"/>
  <rect x="480" y="120" width="4" height="560" fill="#c5a46d" opacity="0.25"/>
  <rect x="680" y="120" width="4" height="560" fill="#c5a46d" opacity="0.25"/>
  <rect x="880" y="120" width="4" height="560" fill="#c5a46d" opacity="0.25"/>
  <rect x="1080" y="120" width="4" height="560" fill="#c5a46d" opacity="0.25"/>
  <rect x="1280" y="120" width="4" height="560" fill="#c5a46d" opacity="0.25"/>
  <!-- Sofa silhouette -->
  <rect x="300" y="500" width="800" height="180" rx="12" fill="#1a0f05" opacity="0.9"/>
  <rect x="300" y="440" width="800" height="80" rx="8" fill="#231508" opacity="0.9"/>
  <rect x="300" y="440" width="60" height="240" rx="6" fill="#1a0f05" opacity="0.9"/>
  <rect x="1040" y="440" width="60" height="240" rx="6" fill="#1a0f05" opacity="0.9"/>
  <!-- Coffee table -->
  <rect x="480" y="620" width="440" height="8" rx="2" fill="#c5a46d" opacity="0.7"/>
  <rect x="500" y="628" width="8" height="60" fill="#c5a46d" opacity="0.5"/>
  <rect x="900" y="628" width="8" height="60" fill="#c5a46d" opacity="0.5"/>
  <!-- Ambient light -->
  <circle cx="700" cy="0" r="400" fill="#c5a46d" opacity="0.04"/>
  <!-- Label -->
  <text x="700" y="860" text-anchor="middle" font-family="Georgia, serif" font-size="18" fill="#c5a46d" opacity="0.6" letter-spacing="6">SERENE VILLA RETREAT</text>
</svg>
